<svg xmlns="http://www.w3.org/2000/svg" viewBox="0 0 186.53 49.13" height="44"><g data-name="Слой 2"><g data-name="Слой 1"><path d="M59.15 16a2.26 2.26 0 0 0-1.56-1.52 13.39 13.39 0 0 0-4.45-.48H47.8l8.69-14h-6.41L0 41.09l8.32-.27L27 25.4h7.91l-4 6.12h3.59L25.92 45h7.61l7.77-12.2h2a13 13 0 0 0 4.5-.74 9.9 9.9 0 0 0 3.46-2.12 23.7 23.7 0 0 0 3.33-4.39l1.72-2.75a34.42 34.42 0 0 0 2.43-4.36 4 4 0 0 0 .41-2.44zm-26.8 4.17l13-10.77-6.7 10.81zM50.51 22l-1.62 2.58A8.83 8.83 0 0 1 47 26.86a2.94 2.94 0 0 1-1.8.55h-.55l5-8c1 0 1.54.16 1.65.49s-.12.99-.79 2.1z" fill="#ff9b0a"/><path d="M23.79 40.89l3-2q.55.35 1.14.66l1.65-2.64a14.72 14.72 0 0 1-6.49-6.68l-2.46 2c.21.39.43.77.67 1.14l-2 3a.19.19 0 0 0 0 .25l4.16 4.16a.21.21 0 0 0 .33.11zM21.9 21.48A14.61 14.61 0 0 1 36.29 9.34h.4l3.45-2.84-.7-3.39a.21.21 0 0 0-.2-.16h-5.89a.2.2 0 0 0-.2.16l-.74 3.54A17.69 17.69 0 0 0 26.82 9l-3-2a.2.2 0 0 0-.26 0l-4.16 4.17a.18.18 0 0 0 0 .25l2 3a17.46 17.46 0 0 0-2.4 5.64l-3.54.74a.19.19 0 0 0-.16.2v5.89zm29.36 11.94a17.38 17.38 0 0 0 1.64-3.32c-.25.28-.49.53-.73.76a11 11 0 0 1-3.89 2.39q-.49.18-1 .33a14.61 14.61 0 0 1-7.85 4.63l-4.23 6.72h4a.21.21 0 0 0 .2-.16l.73-3.54a17.65 17.65 0 0 0 5.6-2.32l3 2a.21.21 0 0 0 .26 0l4.16-4.16a.2.2 0 0 0 0-.25z" fill="#fff"/><text transform="matrix(1.31 0 0 1 64.49 20.29)" font-size="23.25" font-family="Roboto-Medium,Roboto" fill="#fff"><tspan letter-spacing=".01em">А</tspan><tspan x="14.95" y="0">ЛЬФА</tspan><tspan fill="#f70000"><tspan x="0" y="22.54">РЕМО</tspan><tspan x="63.81" y="22.54" letter-spacing="-.01em">Н</tspan><tspan x="79.86" y="22.54">Т</tspan></tspan></text></g></g></svg>